# xmcd
#
# Track frame offsets:
#	150
#	15462
#	35451
#	48999
#	69481
#	81265
#	94923
#	114867
#	136215
#
# Disc length: 1964 seconds
#
# Revision: 1
# Processed by: cddbd v1.5.2PL0 Copyright (c) Steve Scherf et al.
# Submitted via: audiograbber 1.83.01
#
DISCID=6a07aa09
DTITLE=Harry Manx - 20 Strings and the Truth
DYEAR=2015
DGENRE=Blues
TTITLE0=Veenarama
TTITLE1=Phunkistan
TTITLE2=Summertime
TTITLE3=Waiting in Vain
TTITLE4=Blueswalk
TTITLE5=Love Is Enough
TTITLE6=At Your Feet
TTITLE7=Intro to the Unknow
TTITLE8=Crazy Love (Wedding Version)
EXTD=
EXTT0=
EXTT1=
EXTT2=
EXTT3=
EXTT4=
EXTT5=
EXTT6=
EXTT7=
EXTT8=
PLAYORDER=
